{
	"asset":{
		"generator":"Khronos glTF Blender I/O v4.0.44",
		"version":"2.0"
	},
	"scene":0,
	"scenes":[
		{
			"name":"Scene",
			"nodes":[
				0
			]
		}
	],
	"nodes":[
		{
			"mesh":0,
			"name":"ball"
		}
	],
	"materials":[
		{
			"name":"white",
			"occlusionTexture":{
				"index":0
			},
			"pbrMetallicRoughness":{
				"metallicFactor":0,
				"roughnessFactor":0
			}
		},
		{
			"name":"black",
			"occlusionTexture":{
				"index":1
			},
			"pbrMetallicRoughness":{
				"baseColorFactor":[
					0.040915198624134064,
					0.040915198624134064,
					0.040915198624134064,
					1
				],
				"metallicFactor":0,
				"roughnessFactor":0
			}
		},
		{
			"name":"logo",
			"occlusionTexture":{
				"index":2
			},
			"pbrMetallicRoughness":{
				"baseColorFactor":[
					0.5972018837928772,
					0.5972018837928772,
					0.5972018837928772,
					1
				],
				"roughnessFactor":0.08999998867511749
			}
		}
	],
	"meshes":[
		{
			"name":"ball",
			"primitives":[
				{
					"attributes":{
						"COLOR_0":0,
						"POSITION":1,
						"NORMAL":2,
						"TEXCOORD_0":3,
						"TEXCOORD_1":4
					},
					"indices":5,
					"material":0
				},
				{
					"attributes":{
						"COLOR_0":6,
						"POSITION":7,
						"NORMAL":8,
						"TEXCOORD_0":9,
						"TEXCOORD_1":10
					},
					"indices":11,
					"material":1
				},
				{
					"attributes":{
						"COLOR_0":12,
						"POSITION":13,
						"NORMAL":14,
						"TEXCOORD_0":15,
						"TEXCOORD_1":16
					},
					"indices":17,
					"material":2
				}
			]
		}
	],
	"textures":[
		{
			"sampler":0,
			"source":0
		},
		{
			"sampler":0,
			"source":0
		},
		{
			"sampler":0,
			"source":0
		}
	],
	"images":[
		{
			"mimeType":"image/jpeg",
			"name":"Image_0",
			"uri":"Image_0.jpg"
		}
	],
	"accessors":[
		{
			"bufferView":0,
			"componentType":5123,
			"count":5762,
			"normalized":true,
			"type":"VEC4"
		},
		{
			"bufferView":1,
			"componentType":5126,
			"count":5762,
			"max":[
				0.39854875206947327,
				0.8049409985542297,
				0.34900641441345215
			],
			"min":[
				-0.3985309898853302,
				0,
				-0.3986949920654297
			],
			"type":"VEC3"
		},
		{
			"bufferView":2,
			"componentType":5126,
			"count":5762,
			"type":"VEC3"
		},
		{
			"bufferView":3,
			"componentType":5126,
			"count":5762,
			"type":"VEC2"
		},
		{
			"bufferView":4,
			"componentType":5126,
			"count":5762,
			"type":"VEC2"
		},
		{
			"bufferView":5,
			"componentType":5123,
			"count":30132,
			"type":"SCALAR"
		},
		{
			"bufferView":6,
			"componentType":5123,
			"count":2017,
			"normalized":true,
			"type":"VEC4"
		},
		{
			"bufferView":7,
			"componentType":5126,
			"count":2017,
			"max":[
				0.2689858376979828,
				0.7200396656990051,
				0.2650386095046997
			],
			"min":[
				-0.26901721954345703,
				0.047560449689626694,
				-0.2650049328804016
			],
			"type":"VEC3"
		},
		{
			"bufferView":8,
			"componentType":5126,
			"count":2017,
			"type":"VEC3"
		},
		{
			"bufferView":9,
			"componentType":5126,
			"count":2017,
			"type":"VEC2"
		},
		{
			"bufferView":10,
			"componentType":5126,
			"count":2017,
			"type":"VEC2"
		},
		{
			"bufferView":11,
			"componentType":5123,
			"count":8772,
			"type":"SCALAR"
		},
		{
			"bufferView":12,
			"componentType":5123,
			"count":600,
			"normalized":true,
			"type":"VEC4"
		},
		{
			"bufferView":13,
			"componentType":5126,
			"count":600,
			"max":[
				0.09643179178237915,
				0.6606382727622986,
				0.253983736038208
			],
			"min":[
				-0.06713095307350159,
				0.5145667195320129,
				0.1640217900276184
			],
			"type":"VEC3"
		},
		{
			"bufferView":14,
			"componentType":5126,
			"count":600,
			"type":"VEC3"
		},
		{
			"bufferView":15,
			"componentType":5126,
			"count":600,
			"type":"VEC2"
		},
		{
			"bufferView":16,
			"componentType":5126,
			"count":600,
			"type":"VEC2"
		},
		{
			"bufferView":17,
			"componentType":5123,
			"count":1260,
			"type":"SCALAR"
		}
	],
	"bufferViews":[
		{
			"buffer":0,
			"byteLength":46096,
			"byteOffset":0,
			"target":34962
		},
		{
			"buffer":0,
			"byteLength":69144,
			"byteOffset":46096,
			"target":34962
		},
		{
			"buffer":0,
			"byteLength":69144,
			"byteOffset":115240,
			"target":34962
		},
		{
			"buffer":0,
			"byteLength":46096,
			"byteOffset":184384,
			"target":34962
		},
		{
			"buffer":0,
			"byteLength":46096,
			"byteOffset":230480,
			"target":34962
		},
		{
			"buffer":0,
			"byteLength":60264,
			"byteOffset":276576,
			"target":34963
		},
		{
			"buffer":0,
			"byteLength":16136,
			"byteOffset":336840,
			"target":34962
		},
		{
			"buffer":0,
			"byteLength":24204,
			"byteOffset":352976,
			"target":34962
		},
		{
			"buffer":0,
			"byteLength":24204,
			"byteOffset":377180,
			"target":34962
		},
		{
			"buffer":0,
			"byteLength":16136,
			"byteOffset":401384,
			"target":34962
		},
		{
			"buffer":0,
			"byteLength":16136,
			"byteOffset":417520,
			"target":34962
		},
		{
			"buffer":0,
			"byteLength":17544,
			"byteOffset":433656,
			"target":34963
		},
		{
			"buffer":0,
			"byteLength":4800,
			"byteOffset":451200,
			"target":34962
		},
		{
			"buffer":0,
			"byteLength":7200,
			"byteOffset":456000,
			"target":34962
		},
		{
			"buffer":0,
			"byteLength":7200,
			"byteOffset":463200,
			"target":34962
		},
		{
			"buffer":0,
			"byteLength":4800,
			"byteOffset":470400,
			"target":34962
		},
		{
			"buffer":0,
			"byteLength":4800,
			"byteOffset":475200,
			"target":34962
		},
		{
			"buffer":0,
			"byteLength":2520,
			"byteOffset":480000,
			"target":34963
		}
	],
	"samplers":[
		{
			"magFilter":9729,
			"minFilter":9987
		}
	],
	"buffers":[
		{
			"byteLength":482520,
			"uri":"ShaderBall2.bin"
		}
	]
}
